<svg width="435" height="73" viewBox="0 0 435 73" fill="none" xmlns="http://www.w3.org/2000/svg">
    <path d="M52.5239 58.9375H53.4821C56.5295 58.9375 59 56.4751 59 53.4375V47.3582C56.757 51.2437 54.6016 55.1089 52.5239 58.9375ZM35.8923 58.9375H49.1534C52.2514 53.1901 55.5222 47.355 59 41.4851V20.4375C59 20.2136 58.9865 19.9926 58.9603 19.7756C49.9655 33.4194 42.4969 46.762 35.8923 58.9375ZM15.8009 58.9375H32.8049C39.843 45.9323 47.85 31.5473 57.6523 16.835C56.6405 15.6725 55.1475 14.9375 53.4821 14.9375H44.2924C39.1284 22.6315 34.5893 29.912 30.4396 36.5679C25.2031 44.9669 20.4978 52.5135 15.8009 58.9375ZM0 35.9402V53.4375C0 56.4751 2.4705 58.9375 5.5179 58.9375H12.7339C17.7338 52.2888 22.7282 44.278 28.3411 35.2743C32.2588 28.9915 36.5212 22.1549 41.3276 14.9375H23.0847C16.3433 22.9471 10.3774 29.1755 3.4757 33.8118C2.3098 34.5952 1.1514 35.3024 0 35.9402ZM5.5179 14.9375C2.4705 14.9375 0 17.3998 0 20.4375V33.3964C0.7404 32.9573 1.4846 32.4869 2.2335 31.9839C8.507 27.7684 14.0441 22.1266 20.1816 14.9375H5.5179Z" fill="#34D399"/>
    <path opacity="0.6" d="M52.5239 58.9375H53.4821C56.5295 58.9375 59 56.4751 59 53.4375V47.3582C56.757 51.2437 54.6016 55.1089 52.5239 58.9375ZM35.8923 58.9375H49.1534C52.2514 53.1901 55.5222 47.355 59 41.4851V20.4375C59 20.2136 58.9865 19.9926 58.9603 19.7756C49.9655 33.4194 42.4969 46.762 35.8923 58.9375ZM15.8009 58.9375H32.8049C39.843 45.9323 47.85 31.5473 57.6523 16.835C56.6405 15.6725 55.1475 14.9375 53.4821 14.9375H44.2924C39.1284 22.6315 34.5893 29.912 30.4396 36.5679C25.2031 44.9669 20.4978 52.5135 15.8009 58.9375ZM0 35.9402V53.4375C0 56.4751 2.4705 58.9375 5.5179 58.9375H12.7339C17.7338 52.2888 22.7282 44.278 28.3411 35.2743C32.2588 28.9915 36.5212 22.1549 41.3276 14.9375H23.0847C16.3433 22.9471 10.3774 29.1755 3.4757 33.8118C2.3098 34.5952 1.1514 35.3024 0 35.9402ZM5.5179 14.9375C2.4705 14.9375 0 17.3998 0 20.4375V33.3964C0.7404 32.9573 1.4846 32.4869 2.2335 31.9839C8.507 27.7684 14.0441 22.1266 20.1816 14.9375H5.5179Z" fill="url(#paint0_radial_1_53)"/>
    <path d="M122.922 58.875V24.3597C122.922 17.4786 119.502 14.0743 112.586 14.0743H73.3768C66.5257 14.0743 63.0625 17.4786 63.0625 24.2857V58.875H75.9375V29.2687C75.9375 27.7227 76.7436 26.9493 78.3559 26.9493H87.0625V58.875H99.9375V26.9493H107.905C109.281 26.9493 110.078 27.7227 110.078 29.2687V58.875H122.922Z" fill="#18181B"/>
    <path d="M139.034 10.875C140.895 10.875 141.862 9.89997 141.862 7.95007V2.92542C141.862 0.975415 140.895 0 139.034 0H132.039C130.03 0 129.062 0.975415 129.062 2.92542V7.95007C129.062 9.89997 129.956 10.875 131.742 10.875H139.034ZM141.938 58.875V14H129.062V58.875H141.938Z" fill="#18181B"/>
    <path d="M161.938 58.875V1H149.062V58.875H161.938Z" fill="#18181B"/>
    <path d="M199.822 58.6427C206.13 58.6427 209.246 55.3121 209.246 48.6511V41.153C209.246 35.0765 206.13 32.0673 199.822 32.0673H183.101C182.265 32.0673 181.809 31.6326 181.809 30.6764V27.6339C181.809 26.5907 182.265 26.0693 183.101 26.0693H208.03V14.1943H179.301C172.384 14.1943 168.964 17.5464 168.964 24.1754V31.5457C168.964 37.9421 171.092 40.8077 178.009 40.8077H194.654C195.49 40.8077 195.946 41.2394 195.946 42.1895V45.2128C195.946 46.2494 195.49 46.7677 194.654 46.7677H169.496V58.6427H199.822Z" fill="#18181B"/>
    <path d="M225.034 10.875C226.895 10.875 227.862 9.89997 227.862 7.95007V2.92542C227.862 0.975415 226.895 0 225.034 0H218.039C216.03 0 215.062 0.975415 215.062 2.92542V7.95007C215.062 9.89997 215.955 10.875 217.741 10.875H225.034ZM227.938 58.875V14H215.062V58.875H227.938Z" fill="#18181B"/>
    <path d="M294.922 58.875V24.3597C294.922 17.4786 291.502 14.0743 284.586 14.0743H245.377C238.526 14.0743 235.062 17.4786 235.062 24.2857V58.875H247.938V29.2687C247.938 27.7227 248.744 26.9493 250.356 26.9493H259.062V58.875H271.938V26.9493H279.905C281.281 26.9493 282.078 27.7227 282.078 29.2687V58.875H294.922Z" fill="#18181B"/>
    <path d="M328.062 45.3821C328.062 46.3568 327.531 46.8817 326.544 46.8817H315.456C314.469 46.8817 313.938 46.3568 313.938 45.3821V42.3078C313.938 41.333 314.469 40.8077 315.456 40.8077H326.544C327.531 40.8077 328.062 41.333 328.062 42.3078V45.3821ZM330.89 58.7567C337.588 58.7567 340.938 55.3636 340.938 48.5776V24.2249C340.938 17.5638 337.439 14.2323 330.518 14.2323H302.784V26.1074H325.785C327.304 26.1074 328.062 26.9966 328.062 28.7758V32.6035C327.379 32.2968 326.544 32.0673 325.557 32.0673H310.645C304.282 32.0673 301.062 35.5172 301.062 42.4578V48.9465C301.062 55.5112 304.282 58.7567 310.645 58.7567H330.89Z" fill="#34D399"/>
    <path d="M377.741 58.8007C384.513 58.8007 387.938 55.3971 387.938 48.5901V24.0471C387.938 17.3495 384.439 14.0743 377.518 14.0743H347.062V72.875H359.938V58.8007H377.741ZM375.062 43.5535C375.062 45.1349 374.249 45.9257 372.622 45.9257H359.938V26.9493H372.622C374.249 26.9493 375.062 27.8184 375.062 29.4789V43.5535Z" fill="#34D399"/>
    <path d="M424.741 58.8007C431.513 58.8007 434.938 55.3971 434.938 48.5901V24.0471C434.938 17.3495 431.439 14.0743 424.518 14.0743H394.062V72.875H406.938V58.8007H424.741ZM422.062 43.5535C422.062 45.1349 421.249 45.9257 419.622 45.9257H406.938V26.9493H419.622C421.249 26.9493 422.062 27.8184 422.062 29.4789V43.5535Z" fill="#34D399"/>
    <defs>
        <radialGradient id="paint0_radial_1_53" cx="0" cy="0" r="1" gradientUnits="userSpaceOnUse" gradientTransform="translate(2839.37 4433.27) scale(2949.99 2200)">
            <stop stop-color="#EEEEEE"/>
            <stop offset="1" stop-color="white" stop-opacity="0"/>
        </radialGradient>
    </defs>
</svg>
